<svg xmlns="http://www.w3.org/2000/svg" viewBox="0 0 65.64 65.81"><defs><style>.cls-1{fill:#ed1c24;}.cls-2{fill:#21409a;}.cls-3{fill:#231f20;}</style></defs><g id="Layer_2" data-name="Layer 2"><g id="Layer_1-2" data-name="Layer 1"><path class="cls-1" d="M36.45,11.56s-1.1-1.05-.5-1.87A41.38,41.38,0,0,1,40,5.74a48.33,48.33,0,0,1,4.45,3.94c.61.83-.86,1.44-.86,1.44l-2.72-2.2C41,23.8,43.83,26.4,60.35,26.11c.39-.08.6,1,.65,1.2a.92.92,0,0,1-.62.87c-18,.41-21.81-3.56-21.17-19.28"/><path class="cls-2" d="M11.47,29.27s-1,1.1-1.87.5a42.81,42.81,0,0,1-3.95-4.08A47.11,47.11,0,0,1,9.6,21.23c.82-.6,1.44.86,1.44.86L8.83,24.82C23.71,24.77,26.32,21.89,26,5.37c-.07-.39,1-.6,1.2-.65a.93.93,0,0,1,.88.62c.4,18-3.57,21.82-19.28,21.17"/><path class="cls-1" d="M29.18,54.25s1.1,1,.5,1.87a40.45,40.45,0,0,1-4.08,4,47.11,47.11,0,0,1-4.46-4c-.6-.82.86-1.44.86-1.44l2.73,2.21C24.69,42,21.8,39.4,5.28,39.7c-.39.07-.59-1-.64-1.2a.9.9,0,0,1,.61-.87c18-.41,21.82,3.56,21.17,19.28"/><path class="cls-2" d="M54.17,36.54s1-1.1,1.86-.5a40.84,40.84,0,0,1,4,4.08,47.11,47.11,0,0,1-4,4.46c-.83.6-1.44-.86-1.44-.86L56.81,41c-14.89,0-17.49,2.93-17.2,19.45.08.39-1,.59-1.19.64a.91.91,0,0,1-.88-.61c-.41-18,3.56-21.82,19.28-21.17"/><path class="cls-3" d="M2.41,35.4c3.22,0,3.23-5,0-5s-3.22,5,0,5Z"/><path class="cls-3" d="M32.82,65.81c3.22,0,3.22-5,0-5s-3.22,5,0,5Z"/><path class="cls-3" d="M63.22,35.4c3.22,0,3.22-5,0-5s-3.22,5,0,5Z"/><path class="cls-3" d="M32.82,5C36,5,36,0,32.82,0s-3.22,5,0,5Z"/><path class="cls-3" d="M32.82,34.15a1.25,1.25,0,0,0,0-2.5,1.25,1.25,0,0,0,0,2.5Z"/><rect class="cls-2" x="5.77" y="31.61" width="25.25" height="2.59" rx="0.99" transform="translate(36.8 65.81) rotate(-180)"/><rect class="cls-1" x="20.19" y="17.19" width="25.25" height="2.59" rx="0.99" transform="translate(14.33 51.3) rotate(-90)"/><rect class="cls-2" x="34.61" y="31.61" width="25.25" height="2.59" rx="0.99"/><rect class="cls-1" x="20.19" y="46.03" width="25.25" height="2.59" rx="0.99" transform="translate(80.14 14.5) rotate(90)"/></g></g></svg>