<svg xmlns="http://www.w3.org/2000/svg" viewBox="0 0 65.64 65.81"><defs><style>.cls-1{fill:#ed1c24;}.cls-2{fill:#21409a;}.cls-3{fill:#231f20;}</style></defs><g id="Layer_2" data-name="Layer 2"><g id="Layer_1-2" data-name="Layer 1"><path class="cls-1" d="M38.18,18.91A9.23,9.23,0,0,0,35.52,22a2.47,2.47,0,0,0,.3,1.71l3.07-2.91V47a1,1,0,0,0,1,1h0a1,1,0,0,0,1-1l0-26.26,2.76,2.88a2.68,2.68,0,0,0,.54-1.58c-.24-1.22-2.05-2.58-2.55-3S40,17.91,39.83,17.81"/><path class="cls-2" d="M18.83,27.54A9.29,9.29,0,0,0,21.9,30.2a2.48,2.48,0,0,0,1.72-.3L20.7,26.83H47a1,1,0,0,0,1-1h0a1,1,0,0,0-1-1l-26.27,0,2.89-2.75A2.68,2.68,0,0,0,22,21.62c-1.21.24-2.58,2.05-3,2.55s-1.18,1.59-1.28,1.72"/><path class="cls-1" d="M27.45,46.89a9.31,9.31,0,0,0,2.67-3.07,2.5,2.5,0,0,0-.31-1.72L26.74,45V18.77a1,1,0,0,0-1-1h0a1,1,0,0,0-1,1V45l-2.75-2.89a2.75,2.75,0,0,0-.55,1.59c.24,1.21,2.06,2.58,2.56,3S25.67,47.9,25.8,48"/><path class="cls-2" d="M46.81,38.27a9.18,9.18,0,0,0-3.07-2.66,2.48,2.48,0,0,0-1.72.3L44.93,39H18.69a1,1,0,0,0-1,1h0a1,1,0,0,0,1,1H45l-2.88,2.75a2.7,2.7,0,0,0,1.58.55c1.22-.24,2.58-2.06,3-2.56s1.18-1.58,1.28-1.71"/><path class="cls-3" d="M2.41,35.4c3.22,0,3.23-5,0-5s-3.22,5,0,5Z"/><path class="cls-3" d="M32.82,65.81c3.22,0,3.22-5,0-5s-3.22,5,0,5Z"/><path class="cls-3" d="M63.22,35.4c3.22,0,3.22-5,0-5s-3.22,5,0,5Z"/><path class="cls-3" d="M32.82,5C36,5,36,0,32.82,0s-3.22,5,0,5Z"/><path class="cls-3" d="M32.82,34.15a1.25,1.25,0,0,0,0-2.5,1.25,1.25,0,0,0,0,2.5Z"/><rect class="cls-2" x="5.77" y="31.61" width="25.25" height="2.59" rx="0.99" transform="translate(36.8 65.81) rotate(-180)"/><rect class="cls-1" x="20.19" y="17.19" width="25.25" height="2.59" rx="0.99" transform="translate(14.33 51.3) rotate(-90)"/><rect class="cls-2" x="34.61" y="31.61" width="25.25" height="2.59" rx="0.99"/><rect class="cls-1" x="20.19" y="46.03" width="25.25" height="2.59" rx="0.99" transform="translate(80.14 14.5) rotate(90)"/></g></g></svg>