<svg xmlns="http://www.w3.org/2000/svg" viewBox="0 0 65.64 65.81"><defs><style>.cls-1{fill:#231f20;}.cls-2{fill:#21409a;}.cls-3{fill:#ed1c24;}</style></defs><g id="Layer_2" data-name="Layer 2"><g id="Layer_1-2" data-name="Layer 1"><path class="cls-1" d="M2.41,35.4c3.22,0,3.23-5,0-5s-3.22,5,0,5Z"/><path class="cls-1" d="M32.82,65.81c3.22,0,3.22-5,0-5s-3.22,5,0,5Z"/><path class="cls-1" d="M63.22,35.4c3.22,0,3.22-5,0-5s-3.22,5,0,5Z"/><path class="cls-1" d="M32.82,5C36,5,36,0,32.82,0s-3.22,5,0,5Z"/><path class="cls-1" d="M32.82,34.15a1.25,1.25,0,0,0,0-2.5,1.25,1.25,0,0,0,0,2.5Z"/><rect class="cls-2" x="5.77" y="31.61" width="25.25" height="2.59" rx="0.99" transform="translate(36.8 65.81) rotate(-180)"/><rect class="cls-3" x="20.19" y="17.19" width="25.25" height="2.59" rx="0.99" transform="translate(14.33 51.3) rotate(-90)"/><rect class="cls-2" x="34.61" y="31.61" width="25.25" height="2.59" rx="0.99"/><rect class="cls-3" x="20.19" y="46.03" width="25.25" height="2.59" rx="0.99" transform="translate(80.14 14.5) rotate(90)"/><path class="cls-3" d="M36.27,9.84a9.25,9.25,0,0,0,.29,4.06,2.49,2.49,0,0,0,1.43,1l.11-4.23L56.65,29.23a1,1,0,0,0,1.37,0h0a1,1,0,0,0,0-1.36L39.43,9.31l4,.09a2.72,2.72,0,0,0-.73-1.51c-1-.69-3.28-.37-3.92-.3s-2,.29-2.12.31"/><path class="cls-2" d="M9.76,29.45a9.11,9.11,0,0,0,4.06-.29,2.49,2.49,0,0,0,1-1.43l-4.24-.1L29.14,9.07a1,1,0,0,0,0-1.36h0a1,1,0,0,0-1.36,0L9.22,26.29l.09-4a2.68,2.68,0,0,0-1.5.73c-.69,1-.38,3.28-.31,3.92s.29,1.95.31,2.12"/><path class="cls-3" d="M29.37,56a9.41,9.41,0,0,0-.29-4.06,2.46,2.46,0,0,0-1.43-1l-.11,4.23L9,36.58a1,1,0,0,0-1.36,0h0a1,1,0,0,0,0,1.36L26.2,56.5l-4-.09a2.68,2.68,0,0,0,.73,1.5c1,.7,3.28.38,3.91.31s2-.29,2.12-.31"/><path class="cls-2" d="M55.88,36.35a9.41,9.41,0,0,0-4.06.29,2.52,2.52,0,0,0-1,1.43l4.23.11L36.49,56.74a1,1,0,0,0,0,1.36h0a1,1,0,0,0,1.36,0L56.42,39.52l-.1,4a2.72,2.72,0,0,0,1.51-.74c.69-1,.37-3.28.3-3.91s-.29-2-.31-2.12"/></g></g></svg>