<svg xmlns="http://www.w3.org/2000/svg" viewBox="0 0 65.64 65.81"><defs><style>.cls-1{fill:#231f20;}.cls-2{fill:#ed1c24;}.cls-3{fill:#21409a;}</style></defs><g id="Layer_2" data-name="Layer 2"><g id="Layer_1-2" data-name="Layer 1"><path class="cls-1" d="M2.41,35.4c3.22,0,3.23-5,0-5s-3.22,5,0,5Z"/><path class="cls-1" d="M32.82,65.81c3.22,0,3.22-5,0-5s-3.22,5,0,5Z"/><path class="cls-1" d="M63.22,35.4c3.22,0,3.22-5,0-5s-3.22,5,0,5Z"/><path class="cls-1" d="M32.82,5C36,5,36,0,32.82,0s-3.22,5,0,5Z"/><path class="cls-1" d="M32.82,34.15a1.25,1.25,0,0,0,0-2.5,1.25,1.25,0,0,0,0,2.5Z"/><path class="cls-2" d="M37.3,8.42c.59.68,2,2.66,3.13,3.09.48.18,1.06-.31,1.61-.35L39.18,7.71C48.1,8,58.15,15.54,59,28.15a1.2,1.2,0,0,0,1.44,1.16c1-.09,1-.47.87-1.46-1.13-11.94-9.85-22-22.1-22L42.53,3A2.59,2.59,0,0,0,41,2.51c-1.22.24-3.12,2.07-3.54,2.55S36.3,6.51,36.2,6.65"/><path class="cls-3" d="M8.33,28.42c.69-.59,2.66-2,3.09-3.12.18-.49-.3-1.07-.34-1.62L7.63,26.54c.27-8.92,7.83-19,20.43-19.77a1.19,1.19,0,0,0,1.16-1.44c-.09-1-.47-1-1.45-.87-11.95,1.13-22,9.85-22,22.1L3,23.19a2.52,2.52,0,0,0-.53,1.51c.24,1.22,2.06,3.12,2.54,3.54s1.46,1.18,1.59,1.28"/><path class="cls-2" d="M28.33,57.39c-.59-.69-2-2.66-3.12-3.09-.48-.18-1.07.3-1.62.34l2.87,3.45c-8.92-.26-19-7.83-19.77-20.43A1.19,1.19,0,0,0,5.25,36.5c-1,.09-1,.47-.87,1.45,1.13,11.95,9.85,22,22.1,22l-3.37,2.76a2.41,2.41,0,0,0,1.51.53c1.22-.24,3.11-2.06,3.54-2.54s1.18-1.46,1.28-1.59"/><path class="cls-3" d="M57.3,37.39c-.68.59-2.66,2-3.09,3.12-.18.49.31,1.07.35,1.62L58,39.26c-.27,8.93-7.83,19-20.44,19.77a1.21,1.21,0,0,0-1.16,1.45c.09,1,.47,1,1.46.86,11.94-1.13,22.05-9.84,22.05-22.09l2.76,3.36a2.48,2.48,0,0,0,.53-1.51C63,39.89,61.14,38,60.67,37.56s-1.46-1.18-1.59-1.27"/><rect class="cls-3" x="5.77" y="31.61" width="25.25" height="2.59" rx="0.99" transform="translate(36.8 65.81) rotate(-180)"/><rect class="cls-2" x="20.19" y="17.19" width="25.25" height="2.59" rx="0.99" transform="translate(14.33 51.3) rotate(-90)"/><rect class="cls-3" x="34.61" y="31.61" width="25.25" height="2.59" rx="0.99"/><rect class="cls-2" x="20.19" y="46.03" width="25.25" height="2.59" rx="0.99" transform="translate(80.14 14.5) rotate(90)"/></g></g></svg>