<svg xmlns="http://www.w3.org/2000/svg" viewBox="0 0 65.64 65.81"><defs><style>.cls-1{fill:#231f20;}.cls-2{fill:#21409a;}.cls-3{fill:#ed1c24;}</style></defs><g id="Layer_2" data-name="Layer 2"><g id="Layer_1-2" data-name="Layer 1"><path class="cls-1" d="M2.41,35.4c3.22,0,3.23-5,0-5s-3.22,5,0,5Z"/><path class="cls-1" d="M32.82,65.81c3.22,0,3.22-5,0-5s-3.22,5,0,5Z"/><path class="cls-1" d="M63.22,35.4c3.22,0,3.22-5,0-5s-3.22,5,0,5Z"/><path class="cls-1" d="M32.82,5C36,5,36,0,32.82,0s-3.22,5,0,5Z"/><path class="cls-1" d="M32.82,34.15a1.25,1.25,0,0,0,0-2.5,1.25,1.25,0,0,0,0,2.5Z"/><rect class="cls-2" x="5.77" y="31.61" width="25.25" height="2.59" rx="0.99" transform="translate(36.8 65.81) rotate(-180)"/><rect class="cls-3" x="20.19" y="17.19" width="25.25" height="2.59" rx="0.99" transform="translate(14.33 51.3) rotate(-90)"/><rect class="cls-2" x="34.61" y="31.61" width="25.25" height="2.59" rx="0.99"/><rect class="cls-3" x="20.19" y="46.03" width="25.25" height="2.59" rx="0.99" transform="translate(80.14 14.5) rotate(90)"/></g></g></svg>