<svg xmlns="http://www.w3.org/2000/svg" viewBox="0 0 65.64 65.81"><defs><style>.cls-1{fill:#231f20;}.cls-2{fill:#21409a;}.cls-3{fill:#ed1c24;}</style></defs><g id="Layer_2" data-name="Layer 2"><g id="Layer_1-2" data-name="Layer 1"><path class="cls-1" d="M2.41,35.4c3.22,0,3.23-5,0-5s-3.22,5,0,5Z"/><path class="cls-1" d="M32.82,65.81c3.22,0,3.22-5,0-5s-3.22,5,0,5Z"/><path class="cls-1" d="M63.22,35.4c3.22,0,3.22-5,0-5s-3.22,5,0,5Z"/><path class="cls-1" d="M32.82,5C36,5,36,0,32.82,0s-3.22,5,0,5Z"/><path class="cls-1" d="M32.82,34.15a1.25,1.25,0,0,0,0-2.5,1.25,1.25,0,0,0,0,2.5Z"/><rect class="cls-2" x="5.77" y="31.61" width="25.25" height="2.59" rx="0.99" transform="translate(36.8 65.81) rotate(-180)"/><rect class="cls-3" x="20.19" y="17.19" width="25.25" height="2.59" rx="0.99" transform="translate(14.33 51.3) rotate(-90)"/><rect class="cls-2" x="34.61" y="31.61" width="25.25" height="2.59" rx="0.99"/><rect class="cls-3" x="20.19" y="46.03" width="25.25" height="2.59" rx="0.99" transform="translate(80.14 14.5) rotate(90)"/><path class="cls-3" d="M35.89,11.92s-1.15-.76-.53-1.57a39.25,39.25,0,0,1,4.37-3.89s4.08,3.38,4.55,4.44c.21.47-1.11,1-1.11,1L40.45,9.71c-.83,8.49,3.63,9.13,10.31,7.41-2.06,5.26-3.68,12,8.68,11.66.7.06.82.47.82.71a1.35,1.35,0,0,1-1.14.94c-8.35.67-13.19-2.95-11.24-10.59-7.38.1-9.21-1.94-9.35-10.11"/><path class="cls-2" d="M11.83,29.83s-.75,1.15-1.56.53A39.6,39.6,0,0,1,6.37,26s3.38-4.08,4.44-4.55c.47-.21,1,1.11,1,1.11l-2.2,2.72c8.5.83,9.13-3.63,7.41-10.3,5.27,2,12,3.67,11.66-8.69.07-.7.48-.82.72-.82a1.34,1.34,0,0,1,.93,1.14C31,15,27.39,19.79,19.76,17.84c.09,7.39-2,9.21-10.12,9.36"/><path class="cls-3" d="M29.74,53.89s1.15.76.54,1.57a40.33,40.33,0,0,1-4.37,3.89S21.83,56,21.35,54.91c-.2-.47,1.11-1,1.11-1l2.73,2.2C26,47.6,21.55,47,14.88,48.69c2-5.27,3.68-12-8.69-11.66-.69-.06-.82-.47-.82-.72a1.36,1.36,0,0,1,1.15-.93C14.87,34.7,19.7,38.33,17.75,46c7.39-.09,9.21,1.95,9.36,10.12"/><path class="cls-2" d="M53.81,36s.75-1.15,1.56-.54a39.25,39.25,0,0,1,3.89,4.37s-3.37,4.08-4.44,4.56c-.47.21-1-1.11-1-1.11L56,40.53c-8.49-.82-9.13,3.64-7.41,10.31-5.26-2.05-12-3.67-11.65,8.69-.07.69-.48.82-.72.82a1.36,1.36,0,0,1-.94-1.14C34.62,50.85,38.25,46,45.88,48c-.1-7.39,1.94-9.21,10.11-9.36"/></g></g></svg>