<svg xmlns="http://www.w3.org/2000/svg" viewBox="0 0 65.64 65.81"><defs><style>.cls-1{fill:#231f20;}.cls-2{fill:#21409a;}.cls-3{fill:#ed1c24;}.cls-4{fill:#2e3192;}</style></defs><g id="Layer_2" data-name="Layer 2"><g id="Layer_1-2" data-name="Layer 1"><path class="cls-1" d="M2.41,35.4c3.22,0,3.23-5,0-5s-3.22,5,0,5Z"/><path class="cls-1" d="M32.82,65.81c3.22,0,3.22-5,0-5s-3.22,5,0,5Z"/><path class="cls-1" d="M63.22,35.4c3.22,0,3.22-5,0-5s-3.22,5,0,5Z"/><path class="cls-1" d="M32.82,5C36,5,36,0,32.82,0s-3.22,5,0,5Z"/><path class="cls-1" d="M32.82,34.15a1.25,1.25,0,0,0,0-2.5,1.25,1.25,0,0,0,0,2.5Z"/><rect class="cls-2" x="5.77" y="31.61" width="25.25" height="2.59" rx="0.99" transform="translate(36.8 65.81) rotate(-180)"/><rect class="cls-3" x="20.19" y="17.19" width="25.25" height="2.59" rx="0.99" transform="translate(14.33 51.3) rotate(-90)"/><rect class="cls-2" x="34.61" y="31.61" width="25.25" height="2.59" rx="0.99"/><rect class="cls-3" x="20.19" y="46.03" width="25.25" height="2.59" rx="0.99" transform="translate(80.14 14.5) rotate(90)"/><path class="cls-4" d="M42,21.12c.23.83.43,1.66.61,2.5A40.54,40.54,0,0,0,9.52,29.1l4.21.29c-.36.42-.42,1.17-.89,1.39-1.12.52-3.49.1-4.39,0l-2-.47c0-.17-.19-1.41-.23-2s0-3.27.7-4.3a2.48,2.48,0,0,1,1.44-.7L8,27.25A43.41,43.41,0,0,1,42,21.12Z"/><path class="cls-4" d="M59.21,30.77a1.45,1.45,0,0,1-1.85,0A41.32,41.32,0,0,0,45,24.34c-.15-.86-.32-1.72-.53-2.57A42.57,42.57,0,0,1,59,29.1,1.17,1.17,0,0,1,59.21,30.77Z"/><path class="cls-3" d="M30.73,57.27c.06-.9.48-3.27,0-4.39-.22-.47-1-.54-1.4-.9L29,56.19c-9.61-14-9.13-33.62,1.69-47.83a1.45,1.45,0,0,0,0-1.85A1.18,1.18,0,0,0,29,6.76c-11.51,14.73-12.07,36.14-1.85,51l-3.92-.34a2.47,2.47,0,0,0,.69,1.44c1,.69,3.67.73,4.31.69s1.86-.2,2-.22"/><path class="cls-4" d="M57.19,35c-.9-.06-3.28-.48-4.39,0-.47.21-.54,1-.9,1.39l4.21.29c-14,9.61-33.63,9.13-47.84-1.69a1.45,1.45,0,0,0-1.85,0,1.19,1.19,0,0,0,.25,1.68c14.74,11.51,36.15,12.07,51,1.85l-.35,3.92a2.47,2.47,0,0,0,1.44-.69c.69-1,.74-3.66.7-4.3s-.2-1.87-.23-2"/><path class="cls-4" d="M45,24.34q-1.22-.4-2.46-.72c-.18-.84-.38-1.67-.61-2.5.85.18,1.7.4,2.54.65C44.72,22.62,44.89,23.48,45,24.34Z"/><path class="cls-3" d="M34.94,12.93c-.52-1.12-.1-3.5,0-4.4l.47-2c.16,0,1.41-.19,2-.23s3.27,0,4.3.7a2.54,2.54,0,0,1,.7,1.44l-3.93-.35a40.7,40.7,0,0,1,6,13.71c-.84-.25-1.69-.47-2.54-.65A38.58,38.58,0,0,0,36.62,9.61l-.29,4.21C35.91,13.46,35.15,13.4,34.94,12.93Z"/><path class="cls-3" d="M36.62,59.05a1.19,1.19,0,0,1-1.68.25,1.45,1.45,0,0,1,0-1.85,41.88,41.88,0,0,0,7.65-33.83q1.24.31,2.46.72A44.25,44.25,0,0,1,36.62,59.05Z"/></g></g></svg>