<svg xmlns="http://www.w3.org/2000/svg" viewBox="0 0 65.64 65.81"><defs><style>.cls-1{fill:#231f20;}.cls-2{fill:#21409a;}.cls-3{fill:#ed1c24;}</style></defs><g id="Layer_2" data-name="Layer 2"><g id="Layer_1-2" data-name="Layer 1"><path class="cls-1" d="M2.41,35.4c3.22,0,3.23-5,0-5s-3.22,5,0,5Z"/><path class="cls-1" d="M32.82,65.81c3.22,0,3.22-5,0-5s-3.22,5,0,5Z"/><path class="cls-1" d="M63.22,35.4c3.22,0,3.22-5,0-5s-3.22,5,0,5Z"/><path class="cls-1" d="M32.82,5C36,5,36,0,32.82,0s-3.22,5,0,5Z"/><path class="cls-1" d="M32.82,34.15a1.25,1.25,0,0,0,0-2.5,1.25,1.25,0,0,0,0,2.5Z"/><rect class="cls-2" x="5.77" y="31.61" width="25.25" height="2.59" rx="0.99" transform="translate(36.8 65.81) rotate(-180)"/><rect class="cls-3" x="20.19" y="17.19" width="25.25" height="2.59" rx="0.99" transform="translate(14.33 51.3) rotate(-90)"/><rect class="cls-2" x="34.61" y="31.61" width="25.25" height="2.59" rx="0.99"/><rect class="cls-3" x="20.19" y="46.03" width="25.25" height="2.59" rx="0.99" transform="translate(80.14 14.5) rotate(90)"/><path class="cls-3" d="M36,8.84c.37.73,1.4,2.68,2.55,3.1A1.77,1.77,0,0,0,40,11.61L37.71,8.17C51.49,11,54.64,29,47.84,41.74a1.25,1.25,0,0,0,.36,1.72c.46.19,1,.17,1.45-.7,8-15,2.91-33.86-11.55-36.54l3.36-2.07A1.92,1.92,0,0,0,39.8,3.3a14.87,14.87,0,0,0-3.46,2c-.7.56-1.47,1.31-1.47,1.31"/><path class="cls-2" d="M8.76,29.76c.73-.37,2.67-1.4,3.1-2.55a1.78,1.78,0,0,0-.34-1.52L8.08,28C11,14.23,28.86,11.08,41.65,17.89a1.25,1.25,0,0,0,1.72-.37c.2-.46.18-1-.7-1.45-15-8-33.86-2.91-36.53,11.56L4.06,24.27a1.89,1.89,0,0,0-.84,1.65,14.8,14.8,0,0,0,2,3.46c.57.7,1.31,1.47,1.31,1.47"/><path class="cls-3" d="M29.68,57c-.38-.74-1.4-2.68-2.56-3.11a1.77,1.77,0,0,0-1.51.34l2.32,3.44C14.14,54.77,11,36.86,17.8,24.07a1.25,1.25,0,0,0-.36-1.72c-.47-.19-1-.18-1.45.7-8,15-2.91,33.86,11.55,36.53l-3.36,2.08a1.91,1.91,0,0,0,1.66.84,15,15,0,0,0,3.46-2c.69-.57,1.46-1.31,1.46-1.31"/><path class="cls-2" d="M56.88,36c-.73.38-2.68,1.4-3.1,2.56a1.75,1.75,0,0,0,.33,1.51l3.45-2.32C54.69,51.58,36.77,54.72,24,47.92a1.26,1.26,0,0,0-1.73.36c-.19.47-.17,1,.7,1.45,15,8,33.86,2.92,36.54-11.55l2.07,3.36a1.9,1.9,0,0,0,.85-1.66,14.72,14.72,0,0,0-2-3.46c-.56-.69-1.31-1.46-1.31-1.46"/></g></g></svg>