<svg xmlns="http://www.w3.org/2000/svg" viewBox="0 0 65.64 65.81"><defs><style>.cls-1{fill:#231f20;}.cls-2{fill:#21409a;}.cls-3{fill:#ed1c24;}</style></defs><g id="Layer_2" data-name="Layer 2"><g id="Layer_1-2" data-name="Layer 1"><path class="cls-1" d="M2.41,35.4c3.22,0,3.23-5,0-5s-3.22,5,0,5Z"/><path class="cls-1" d="M32.82,65.81c3.22,0,3.22-5,0-5s-3.22,5,0,5Z"/><path class="cls-1" d="M63.22,35.4c3.22,0,3.22-5,0-5s-3.22,5,0,5Z"/><path class="cls-1" d="M32.82,5C36,5,36,0,32.82,0s-3.22,5,0,5Z"/><path class="cls-1" d="M32.82,34.15a1.25,1.25,0,0,0,0-2.5,1.25,1.25,0,0,0,0,2.5Z"/><rect class="cls-2" x="5.77" y="31.61" width="25.25" height="2.59" rx="0.99" transform="translate(36.8 65.81) rotate(-180)"/><rect class="cls-3" x="20.19" y="17.19" width="25.25" height="2.59" rx="0.99" transform="translate(14.33 51.3) rotate(-90)"/><rect class="cls-2" x="34.61" y="31.61" width="25.25" height="2.59" rx="0.99"/><rect class="cls-3" x="20.19" y="46.03" width="25.25" height="2.59" rx="0.99" transform="translate(80.14 14.5) rotate(90)"/><path class="cls-3" d="M39.87,30.08c.73-.56,2.8-1.15,3.3-2.3a1.78,1.78,0,0,0-.26-1.56l-3.64,2.17C42.21,15.2,56,17,57.71,29.78c.1.77.73,1.36,1.31,1.24s1-.43.81-1.43C57.39,14,40.51,13.06,37.31,27.88l-1.92-3.55c-.36.51-.71.74-.78,1.5a11.35,11.35,0,0,0,1.84,3.89A5.71,5.71,0,0,0,38,31.11"/><path class="cls-2" d="M30,25.85c-.57-.73-1.15-2.8-2.31-3.3a1.83,1.83,0,0,0-1.56.26l2.17,3.64C15.12,23.51,17,9.72,29.69,8c.77-.1,1.37-.73,1.24-1.31s-.43-1-1.43-.81C13.89,8.33,13,25.22,27.79,28.41l-3.55,1.92c.51.36.74.71,1.51.78a11.4,11.4,0,0,0,3.88-1.84A5.65,5.65,0,0,0,31,27.72"/><path class="cls-3" d="M25.77,35.72c-.73.57-2.8,1.15-3.3,2.31a1.82,1.82,0,0,0,.25,1.56l3.65-2.17C23.42,50.6,9.63,48.76,7.92,36c-.1-.77-.73-1.37-1.3-1.24s-1,.43-.82,1.43c2.44,15.61,19.33,16.52,22.53,1.71l1.92,3.55c.35-.51.7-.74.77-1.51a11.55,11.55,0,0,0-1.83-3.88,5.45,5.45,0,0,0-1.55-1.39"/><path class="cls-2" d="M35.64,40c.56.73,1.15,2.8,2.3,3.3A1.81,1.81,0,0,0,39.5,43l-2.16-3.65c13.18,2.95,11.34,16.74-1.4,18.45-.77.1-1.36.73-1.24,1.3s.43,1,1.43.82c15.61-2.44,16.53-19.33,1.72-22.53l3.54-1.92c-.51-.35-.73-.7-1.5-.77A11.67,11.67,0,0,0,36,36.53a5.88,5.88,0,0,0-1.39,1.55"/></g></g></svg>