<svg xmlns="http://www.w3.org/2000/svg" viewBox="0 0 65.64 65.81"><defs><style>.cls-1{fill:#231f20;}.cls-2{fill:#21409a;}.cls-3{fill:#ed1c24;}.cls-4{fill:#2e3192;}</style></defs><g id="Layer_2" data-name="Layer 2"><g id="Layer_1-2" data-name="Layer 1"><path class="cls-1" d="M2.41,35.4c3.22,0,3.23-5,0-5s-3.22,5,0,5Z"/><path class="cls-1" d="M32.82,65.81c3.22,0,3.22-5,0-5s-3.22,5,0,5Z"/><path class="cls-1" d="M63.22,35.4c3.22,0,3.22-5,0-5s-3.22,5,0,5Z"/><path class="cls-1" d="M32.82,5C36,5,36,0,32.82,0s-3.22,5,0,5Z"/><path class="cls-1" d="M32.82,34.15a1.25,1.25,0,0,0,0-2.5,1.25,1.25,0,0,0,0,2.5Z"/><rect class="cls-2" x="5.77" y="31.61" width="25.25" height="2.59" rx="0.99" transform="translate(36.8 65.81) rotate(-180)"/><rect class="cls-3" x="20.19" y="17.19" width="25.25" height="2.59" rx="0.99" transform="translate(14.33 51.3) rotate(-90)"/><rect class="cls-2" x="34.61" y="31.61" width="25.25" height="2.59" rx="0.99"/><rect class="cls-3" x="20.19" y="46.03" width="25.25" height="2.59" rx="0.99" transform="translate(80.14 14.5) rotate(90)"/><path class="cls-4" d="M12.21,35.51A3.35,3.35,0,0,1,14,37.32a1.49,1.49,0,0,1-.08,1.28l-2.24-1.71c1.7,10.41,13.65,8.83,15-1.12.08-.6.57-1.06,1-1s.75.33.63,1.11c-1.9,12.19-16.36,13-18.19,1.28L8.53,39.41a2.7,2.7,0,0,1-.43-1.53,6.27,6.27,0,0,1,1.4-2.16,9.89,9.89,0,0,1,1-1"/><path class="cls-3" d="M30.21,12.29A3.38,3.38,0,0,1,28.41,14,1.48,1.48,0,0,1,27.12,14l1.71-2.23C18.42,13.42,20,25.37,30,26.7c.6.08,1.06.57,1,1s-.33.76-1.11.64c-12.19-1.91-13-16.37-1.28-18.19l-2.2-1.55a2.57,2.57,0,0,1,1.52-.43A6.37,6.37,0,0,1,30,9.58c.79.75.87.85,1,1"/><path class="cls-4" d="M53.43,30.3a3.43,3.43,0,0,1-1.75-1.81,1.49,1.49,0,0,1,.09-1.28L54,28.92C52.3,18.51,40.36,20.09,39,30c-.08.6-.57,1.07-1,1s-.76-.34-.64-1.12c1.91-12.18,16.37-13,18.19-1.27L57.1,26.4a2.66,2.66,0,0,1,.44,1.53,6.56,6.56,0,0,1-1.4,2.15,12.35,12.35,0,0,1-1,1"/><path class="cls-3" d="M35.42,53.51a3.42,3.42,0,0,1,1.81-1.74,1.49,1.49,0,0,1,1.28.08l-1.7,2.24c10.4-1.7,8.82-13.65-1.12-15-.6-.07-1.07-.57-1-1s.34-.75,1.12-.63c12.18,1.91,13,16.36,1.28,18.19l2.2,1.55a2.65,2.65,0,0,1-1.53.43,6.35,6.35,0,0,1-2.15-1.39,11.53,11.53,0,0,1-1-1"/></g></g></svg>