<svg xmlns="http://www.w3.org/2000/svg" viewBox="0 0 65.64 65.81"><defs><style>.cls-1{fill:#231f20;}.cls-2{fill:#21409a;}.cls-3{fill:#ed1c24;}</style></defs><g id="Layer_2" data-name="Layer 2"><g id="Layer_1-2" data-name="Layer 1"><path class="cls-1" d="M2.41,35.4c3.22,0,3.23-5,0-5s-3.22,5,0,5Z"/><path class="cls-1" d="M32.82,65.81c3.22,0,3.22-5,0-5s-3.22,5,0,5Z"/><path class="cls-1" d="M63.22,35.4c3.22,0,3.22-5,0-5s-3.22,5,0,5Z"/><path class="cls-1" d="M32.82,5C36,5,36,0,32.82,0s-3.22,5,0,5Z"/><path class="cls-1" d="M32.82,34.15a1.25,1.25,0,0,0,0-2.5,1.25,1.25,0,0,0,0,2.5Z"/><rect class="cls-2" x="5.77" y="31.61" width="25.25" height="2.59" rx="0.99" transform="translate(36.8 65.81) rotate(-180)"/><rect class="cls-3" x="20.19" y="17.19" width="25.25" height="2.59" rx="0.99" transform="translate(14.33 51.3) rotate(-90)"/><rect class="cls-2" x="34.61" y="31.61" width="25.25" height="2.59" rx="0.99"/><rect class="cls-3" x="20.19" y="46.03" width="25.25" height="2.59" rx="0.99" transform="translate(80.14 14.5) rotate(90)"/><path class="cls-3" d="M60.29,30.57c-4,0-5,.3-6.79-1.49S52,24.5,52.17,23.54c-1.05.16-4.12.58-5.84-1.15s-1-4.49-.83-5.52c-.87.18-3.27.53-5-.76C38.61,14.67,38,12.14,38,9l-2.83,3-.15-.25a2,2,0,0,1-.43-1.35c.17-.8,4.57-4.54,4.57-4.54s4.19,3.88,4.42,4.35-.16,1.28-.35,1.61l-.17.25-.21-.21A32.27,32.27,0,0,0,40.08,9c0,.34.06,1.26.07,1.56.08,2,.62,3.54,1.7,4.17,1.3.77,3.42.33,6-.91l.6-.3-.26.62s-2.08,5-.22,6.89c1.07,1.07,3.3.9,6.6-.51l.46-.19-.12.48c-.51,2.14-1.45,5.6.15,7s4.3.88,5.09.84,1.32.25,1.35.95S61.18,30.57,60.29,30.57Z"/><path class="cls-2" d="M30.49,5.43c0,4,.3,5-1.49,6.79s-4.59,1.46-5.55,1.33c.16,1,.59,4.12-1.14,5.84s-4.5,1-5.53.83c.18.87.54,3.27-.75,5-1.44,1.91-4,2.49-7.07,2.48l2.95,2.83-.25.15a2,2,0,0,1-1.34.43c-.81-.17-4.55-4.57-4.55-4.57s3.89-4.18,4.36-4.42,1.28.16,1.61.35l.25.17-.21.21a29.66,29.66,0,0,0-2.87,2.81c.34,0,1.25-.06,1.55-.07,2-.08,3.54-.62,4.17-1.7.77-1.3.34-3.42-.9-6l-.3-.6.62.26s5.05,2.08,6.89.22c1.07-1.07.9-3.3-.51-6.6l-.19-.46.48.12c2.14.51,5.6,1.45,7-.15s.87-4.3.83-5.09.26-1.32.95-1.35S30.49,4.54,30.49,5.43Z"/><path class="cls-3" d="M5.35,35.24c4,0,5-.3,6.78,1.48s1.47,4.59,1.34,5.55c1-.16,4.11-.59,5.83,1.14s1,4.5.84,5.53c.87-.18,3.26-.54,5,.75,1.91,1.45,2.49,4,2.49,7.07l2.83-2.95.15.25A2,2,0,0,1,31,55.4c-.17.81-4.58,4.55-4.58,4.55S22.25,56.06,22,55.59s.16-1.27.36-1.61l.17-.25.21.22a32.27,32.27,0,0,0,2.81,2.87c0-.34-.07-1.26-.07-1.56-.09-2-.62-3.54-1.7-4.17-1.3-.77-3.43-.34-6,.9l-.6.3.26-.62c0-.05,2.08-5.05.22-6.89-1.07-1.07-3.3-.9-6.6.51l-.46.19.12-.48c.51-2.14,1.46-5.6-.14-7s-4.31-.88-5.09-.84-1.32-.26-1.36-1S4.46,35.24,5.35,35.24Z"/><path class="cls-2" d="M35.15,60.37c0-4-.3-5,1.49-6.78s4.58-1.47,5.54-1.34c-.16-1-.58-4.11,1.15-5.83s4.49-1,5.52-.84c-.18-.87-.53-3.26.76-5,1.44-1.91,4-2.49,7.07-2.49l-3-2.83.25-.14a2,2,0,0,1,1.35-.43c.81.16,4.54,4.57,4.54,4.57S56,43.47,55.51,43.71s-1.28-.16-1.61-.35l-.25-.18.21-.21a29.52,29.52,0,0,0,2.87-2.81c-.34,0-1.26.07-1.56.08-2,.08-3.54.61-4.17,1.69-.77,1.3-.33,3.43.91,6l.3.6-.62-.26c-.05,0-5.05-2.08-6.89-.22-1.07,1.07-.9,3.3.51,6.6l.19.46L44.92,55c-2.14-.51-5.6-1.45-7,.15s-.87,4.3-.84,5.08-.25,1.32-.95,1.36S35.15,61.26,35.15,60.37Z"/></g></g></svg>