<svg xmlns="http://www.w3.org/2000/svg" viewBox="0 0 65.64 65.81"><defs><style>.cls-1{fill:#231f20;}.cls-2{fill:#21409a;}.cls-3{fill:#ed1c24;}.cls-4{fill:#2e3192;}</style></defs><g id="Layer_2" data-name="Layer 2"><g id="Layer_1-2" data-name="Layer 1"><path class="cls-1" d="M2.41,35.4c3.22,0,3.23-5,0-5s-3.22,5,0,5Z"/><path class="cls-1" d="M32.82,65.81c3.22,0,3.22-5,0-5s-3.22,5,0,5Z"/><path class="cls-1" d="M63.22,35.4c3.22,0,3.22-5,0-5s-3.22,5,0,5Z"/><path class="cls-1" d="M32.82,5C36,5,36,0,32.82,0s-3.22,5,0,5Z"/><path class="cls-1" d="M32.82,34.15a1.25,1.25,0,0,0,0-2.5,1.25,1.25,0,0,0,0,2.5Z"/><rect class="cls-2" x="5.77" y="31.61" width="25.25" height="2.59" rx="0.99" transform="translate(36.8 65.81) rotate(-180)"/><rect class="cls-3" x="20.19" y="17.19" width="25.25" height="2.59" rx="0.99" transform="translate(14.33 51.3) rotate(-90)"/><rect class="cls-2" x="34.61" y="31.61" width="25.25" height="2.59" rx="0.99"/><rect class="cls-3" x="20.19" y="46.03" width="25.25" height="2.59" rx="0.99" transform="translate(80.14 14.5) rotate(90)"/><path class="cls-3" d="M26.48,35.43a3.16,3.16,0,0,0-2.17.59,1.45,1.45,0,0,0-.74,1.39l3.56-.11C18.61,47,17,25.9,30,4.57a1.38,1.38,0,0,0,0-1.85,1.09,1.09,0,0,0-1.62.35C12,30.53,18.59,50.61,28.31,38.64l.57,3.64c.48-.36,1.19-.78,1.27-1.21a7.56,7.56,0,0,0-.1-3c-.13-.66-.31-2.19-.4-2.33"/><path class="cls-4" d="M30.29,26.57a3.16,3.16,0,0,0-.59-2.17,1.43,1.43,0,0,0-1.39-.74l.12,3.55C18.75,18.7,39.82,17,61.15,30.11a1.38,1.38,0,0,0,1.85,0,1.1,1.1,0,0,0-.35-1.62c-27.45-16.41-47.54-9.79-35.57-.08L23.44,29c.37.49.78,1.2,1.21,1.28a8,8,0,0,0,3-.1c.66-.13,2.19-.32,2.33-.41"/><path class="cls-3" d="M39.15,30.38a3.09,3.09,0,0,0,2.17-.6,1.42,1.42,0,0,0,.74-1.38l-3.55.11c8.52-9.68,10.17,11.4-2.9,32.72a1.39,1.39,0,0,0,0,1.85,1.08,1.08,0,0,0,1.62-.34c16.42-27.46,9.79-47.55.08-35.58l-.57-3.63c-.49.36-1.2.77-1.28,1.2a8,8,0,0,0,.1,2.95c.13.67.32,2.2.41,2.34"/><path class="cls-4" d="M35.35,39.24a3.06,3.06,0,0,0,.59,2.17,1.45,1.45,0,0,0,1.39.74l-.12-3.56c9.68,8.52-11.39,10.17-32.72-2.89a1.38,1.38,0,0,0-1.85,0A1.07,1.07,0,0,0,3,37.33c27.46,16.42,47.55,9.8,35.58.08l3.63-.57c-.36-.48-.77-1.19-1.2-1.27a7.74,7.74,0,0,0-3,.1c-.67.13-2.2.32-2.34.4"/></g></g></svg>