<svg xmlns="http://www.w3.org/2000/svg" viewBox="0 0 65.64 65.81"><defs><style>.cls-1{fill:#ed1c24;}.cls-2{fill:#21409a;}.cls-3{fill:#231f20;}</style></defs><g id="Layer_2" data-name="Layer 2"><g id="Layer_1-2" data-name="Layer 1"><path class="cls-1" d="M51.52,24.27C48.66,3.45,13.93,10,29,26.35L29.28,23a1.43,1.43,0,0,1,1.3.88,3.11,3.11,0,0,1,.36,2.22l-.71,3.11c-.18.07-1.7.09-2.36.14a7.58,7.58,0,0,1-2.94-.22c-.43-.13-.76-.88-1.06-1.39l3.37-.16C9.06,7.11,53.65-.49,54,26.76A9.23,9.23,0,0,0,51.52,24.27Z"/><path class="cls-1" d="M51.7,27.5a10.13,10.13,0,0,1,2,3.5,45.51,45.51,0,0,1-3.32,11.43c-.14.33-.55,2.67-1.86,2.17s-.83-1.86-.54-2.52C50.53,36.34,51.64,31.51,51.7,27.5Z"/><path class="cls-2" d="M44.52,17.21c-.5,1.31-1.86.83-2.52.53C.94-.54,6.38,55.1,26.27,36.7l-3.35-.26a1.44,1.44,0,0,1,.88-1.31A3.19,3.19,0,0,1,26,34.78l3.1.71c.07.17.09,1.69.15,2.36a7.78,7.78,0,0,1-.22,2.94c-.13.42-.88.76-1.4,1.06l-.15-3.37C3.77,59.54-2.66-3.65,42.35,15.35,42.67,15.49,45,15.9,44.52,17.21Z"/><path class="cls-1" d="M17.12,21.2c1.32.5.83,1.86.54,2.52C-.62,64.78,55,59.34,36.61,39.45l-.26,3.35a1.44,1.44,0,0,1-1.3-.88,3.08,3.08,0,0,1-.35-2.23l.7-3.1c.18-.07,1.7-.09,2.36-.15a7.84,7.84,0,0,1,3,.22c.42.13.75.88,1,1.4l-3.37.15C59.45,62-3.74,68.38,15.26,23.37,15.4,23.05,15.81,20.7,17.12,21.2Z"/><path class="cls-1" d="M54,26.76A25.28,25.28,0,0,1,53.69,31a10.13,10.13,0,0,0-2-3.5,18.62,18.62,0,0,0-.18-3.23A9.23,9.23,0,0,1,54,26.76Z"/><path class="cls-2" d="M36.35,28A7.78,7.78,0,0,1,36.57,25c.13-.43.88-.76,1.4-1.06l.15,3.37c5.56-4.93,10.17-5.24,13.4-3.06a18.62,18.62,0,0,1,.18,3.23c-2.63-2.93-7-3.37-12.34,1.61l3.35.26a1.44,1.44,0,0,1-.88,1.3A3.08,3.08,0,0,1,39.6,31l-3.1-.7C36.43,30.14,36.41,28.62,36.35,28Z"/><path class="cls-2" d="M23.29,50.46c-.33-.14-2.68-.55-2.18-1.86s1.86-.83,2.52-.54C50,59.8,57.2,41,53.69,31A25.28,25.28,0,0,0,54,26.76C61,37,54.66,63.71,23.29,50.46Z"/><path class="cls-3" d="M2.41,35.4c3.22,0,3.23-5,0-5s-3.22,5,0,5Z"/><path class="cls-3" d="M32.82,65.81c3.22,0,3.22-5,0-5s-3.22,5,0,5Z"/><path class="cls-3" d="M63.22,35.4c3.22,0,3.22-5,0-5s-3.22,5,0,5Z"/><path class="cls-3" d="M32.82,5C36,5,36,0,32.82,0s-3.22,5,0,5Z"/><path class="cls-3" d="M32.82,34.15a1.25,1.25,0,0,0,0-2.5,1.25,1.25,0,0,0,0,2.5Z"/><rect class="cls-2" x="5.77" y="31.61" width="25.25" height="2.59" rx="0.99" transform="translate(36.8 65.81) rotate(-180)"/><rect class="cls-1" x="20.19" y="17.19" width="25.25" height="2.59" rx="0.99" transform="translate(14.33 51.3) rotate(-90)"/><path class="cls-2" d="M35.6,31.61H58.87a1,1,0,0,1,1,1v.61a1,1,0,0,1-1,1l-23.06-.12c-.54,0-1.2-.33-1.2-.87V32.6A1,1,0,0,1,35.6,31.61Z"/><rect class="cls-1" x="20.19" y="46.03" width="25.25" height="2.59" rx="0.99" transform="translate(80.14 14.5) rotate(90)"/></g></g></svg>