<svg xmlns="http://www.w3.org/2000/svg" viewBox="0 0 65.64 65.81"><defs><style>.cls-1{fill:#231f20;}.cls-2{fill:#21409a;}.cls-3{fill:#ed1c24;}</style></defs><g id="Layer_2" data-name="Layer 2"><g id="Layer_1-2" data-name="Layer 1"><path class="cls-1" d="M2.41,35.4c3.22,0,3.23-5,0-5s-3.22,5,0,5Z"/><path class="cls-1" d="M32.82,65.81c3.22,0,3.22-5,0-5s-3.22,5,0,5Z"/><path class="cls-1" d="M63.22,35.4c3.22,0,3.22-5,0-5s-3.22,5,0,5Z"/><path class="cls-1" d="M32.82,5C36,5,36,0,32.82,0s-3.22,5,0,5Z"/><path class="cls-1" d="M32.82,34.15a1.25,1.25,0,0,0,0-2.5,1.25,1.25,0,0,0,0,2.5Z"/><rect class="cls-2" x="5.77" y="31.61" width="25.25" height="2.59" rx="0.99" transform="translate(36.8 65.81) rotate(-180)"/><rect class="cls-3" x="20.19" y="17.19" width="25.25" height="2.59" rx="0.99" transform="translate(14.33 51.3) rotate(-90)"/><rect class="cls-2" x="34.61" y="31.61" width="25.25" height="2.59" rx="0.99"/><rect class="cls-3" x="20.19" y="46.03" width="25.25" height="2.59" rx="0.99" transform="translate(80.14 14.5) rotate(90)"/><path class="cls-3" d="M51.78,15.22c-1-5.52-7.06-8.13-12-8.68l-1.49-.12A36.78,36.78,0,0,1,41,3.9l.25-.19-.24-.2Q40.23,2.82,39.7,3C39,3.16,36.2,6.1,36,6.35l-.74.88.2.3c.18.28.55.87.79,1.18l.26.39c.91,1.38,1.85,2.68,2.59,2.9a2.13,2.13,0,0,0,1.37-.32l.27-.13L38.14,8.4l1.64.14c2.58.43,8.58,1.9,9.75,6.45a6,6,0,0,0-5.39,3,3.38,3.38,0,0,0,.75,4.12,3.56,3.56,0,0,0,4.26.45A5.82,5.82,0,0,0,52,17.37c4.15,1.09,6.26,4.82,6.64,11.75.09.37.43,1,1.08,1h.13A1.06,1.06,0,0,0,60.7,29C60.84,22.68,57.82,16,51.78,15.22Zm-1.85,1.86c0,1.64-.25,2.59-1,3.33-1.09.72-2.12.78-2.65.34s-.44-1.11-.1-1.89a3.32,3.32,0,0,1,3.22-1.81Z"/><path class="cls-2" d="M15.13,13.94C9.61,14.93,7,21,6.45,26l-.12,1.49a36.78,36.78,0,0,1-2.52-2.76l-.19-.25-.2.24q-.69.82-.54,1.35c.19.71,3.13,3.5,3.38,3.72l.88.74.3-.2c.28-.18.87-.55,1.18-.79L9,29.23c1.38-.91,2.68-1.85,2.9-2.59a2.13,2.13,0,0,0-.32-1.37L11.46,25,8.31,27.58l.14-1.64c.43-2.58,1.9-8.58,6.45-9.75a6,6,0,0,0,3,5.39,3.38,3.38,0,0,0,4.12-.75,3.56,3.56,0,0,0,.45-4.26,5.82,5.82,0,0,0-5.24-2.8C18.37,9.62,22.1,7.51,29,7.13c.37-.09,1-.43,1-1.08,0,0,0-.08,0-.13A1.06,1.06,0,0,0,28.92,5C22.59,4.88,15.87,7.9,15.13,13.94ZM17,15.79c1.64,0,2.59.25,3.33,1,.72,1.09.79,2.12.35,2.65s-1.12.44-1.9.1A3.32,3.32,0,0,1,17,16.35,5.55,5.55,0,0,1,17,15.79Z"/><path class="cls-3" d="M13.86,50.59c1,5.52,7.06,8.13,12,8.68l1.49.12a36.78,36.78,0,0,1-2.76,2.52l-.25.19.24.2q.82.69,1.35.54c.71-.19,3.5-3.13,3.72-3.38l.74-.88-.2-.3c-.18-.28-.55-.87-.79-1.18l-.26-.39c-.91-1.38-1.85-2.68-2.59-2.9a2.13,2.13,0,0,0-1.37.32l-.27.13,2.58,3.15-1.64-.14c-2.58-.43-8.58-1.9-9.75-6.45a6,6,0,0,0,5.39-3,3.38,3.38,0,0,0-.75-4.12,3.56,3.56,0,0,0-4.26-.45,5.82,5.82,0,0,0-2.8,5.24c-4.15-1.09-6.26-4.82-6.64-11.75-.09-.37-.43-1-1.08-1H5.84a1.06,1.06,0,0,0-.9,1.12C4.8,43.13,7.82,49.85,13.86,50.59Zm1.85-1.86c0-1.64.25-2.59,1-3.33,1.09-.72,2.11-.79,2.64-.35s.45,1.12.11,1.9a3.32,3.32,0,0,1-3.22,1.81Z"/><path class="cls-2" d="M50.5,51.86c5.52-1,8.13-7.06,8.68-12l.12-1.49a36.78,36.78,0,0,1,2.52,2.76l.19.25.2-.24q.69-.83.54-1.35c-.19-.71-3.13-3.5-3.38-3.72l-.88-.74-.3.2c-.28.18-.87.55-1.18.79l-.39.26c-1.38.91-2.68,1.85-2.9,2.59A2.13,2.13,0,0,0,54,40.53l.13.27,3.15-2.58-.14,1.64c-.43,2.58-1.9,8.58-6.45,9.75a6,6,0,0,0-3-5.39,3.38,3.38,0,0,0-4.12.75,3.56,3.56,0,0,0-.45,4.26A5.82,5.82,0,0,0,48.35,52c-1.09,4.15-4.82,6.26-11.75,6.64-.37.09-1,.43-1,1.08,0,0,0,.08,0,.13a1.06,1.06,0,0,0,1.12.9C43,60.92,49.76,57.9,50.5,51.86ZM48.64,50c-1.64,0-2.59-.25-3.33-1-.72-1.09-.78-2.11-.34-2.64s1.11-.45,1.89-.11a3.32,3.32,0,0,1,1.81,3.22A5.55,5.55,0,0,1,48.64,50Z"/></g></g></svg>