<svg xmlns="http://www.w3.org/2000/svg" viewBox="0 0 65.64 65.81"><defs><style>.cls-1{fill:#231f20;}.cls-2{fill:#21409a;}.cls-3{fill:#ed1c24;}.cls-4{fill:#2e3192;}</style></defs><g id="Layer_2" data-name="Layer 2"><g id="Layer_1-2" data-name="Layer 1"><path class="cls-1" d="M2.41,35.4c3.22,0,3.23-5,0-5s-3.22,5,0,5Z"/><path class="cls-1" d="M32.82,65.81c3.22,0,3.22-5,0-5s-3.22,5,0,5Z"/><path class="cls-1" d="M63.22,35.4c3.22,0,3.22-5,0-5s-3.22,5,0,5Z"/><path class="cls-1" d="M32.82,5C36,5,36,0,32.82,0s-3.22,5,0,5Z"/><path class="cls-1" d="M32.82,34.15a1.25,1.25,0,0,0,0-2.5,1.25,1.25,0,0,0,0,2.5Z"/><rect class="cls-2" x="5.77" y="31.61" width="25.25" height="2.59" rx="0.99" transform="translate(36.8 65.81) rotate(-180)"/><rect class="cls-3" x="20.19" y="17.19" width="25.25" height="2.59" rx="0.99" transform="translate(14.33 51.3) rotate(-90)"/><rect class="cls-2" x="34.61" y="31.61" width="25.25" height="2.59" rx="0.99"/><rect class="cls-3" x="20.19" y="46.03" width="25.25" height="2.59" rx="0.99" transform="translate(80.14 14.5) rotate(90)"/><path class="cls-4" d="M54,31.22c-.79-.06-2.87-.36-3.3-.78s-.3-.76-.19-1.33l2.55.59c-1.36-2.19-4.15-3.95-6.14-3.95a7.23,7.23,0,0,0-6.9,7.3A6.94,6.94,0,0,0,47,40c2.86,0,5.33-2.41,6.45-5.08a.59.59,0,0,1,.74-.34l.22.07a.58.58,0,0,1,.35.77c-1.32,3.22-4.3,6-7.76,6a8.35,8.35,0,0,1-8.34-8.33A8.56,8.56,0,0,1,47,24.42c1.56,0,4.79.73,7.49,4.75l.5-2.55c.43.24.81.41.86.81a5.69,5.69,0,0,1-.87,3.39c-.32.44-.4.46-.4.46Z"/><path class="cls-3" d="M31.14,11.69c-.06.79-.37,2.87-.79,3.3s-.76.3-1.32.19l.59-2.55c-2.2,1.37-4,4.16-4,6.14a7.23,7.23,0,0,0,7.3,6.9,6.94,6.94,0,0,0,6.93-6.94c0-2.86-2.4-5.33-5.08-6.45a.6.6,0,0,1-.34-.74l.08-.22a.58.58,0,0,1,.76-.35c3.23,1.32,6,4.3,6,7.76A8.36,8.36,0,0,1,33,27.08a8.57,8.57,0,0,1-8.62-8.31c0-1.56.73-4.79,4.74-7.49l-2.55-.5c.24-.43.41-.81.81-.86a5.7,5.7,0,0,1,3.4.87c.43.32.46.4.46.4Z"/><path class="cls-4" d="M11.6,34.58c.79.06,2.88.37,3.31.79s.3.76.18,1.33l-2.54-.6c1.36,2.2,4.15,4,6.13,4a7.23,7.23,0,0,0,6.9-7.3,6.94,6.94,0,0,0-6.93-6.93c-2.86,0-5.34,2.4-6.46,5.08a.59.59,0,0,1-.73.34l-.22-.08a.59.59,0,0,1-.36-.76c1.33-3.22,4.3-6,7.77-6A8.35,8.35,0,0,1,27,32.76a8.56,8.56,0,0,1-8.31,8.62c-1.55,0-4.78-.73-7.49-4.74l-.49,2.55c-.44-.24-.82-.41-.87-.81A5.71,5.71,0,0,1,10.71,35c.32-.44.39-.46.39-.46Z"/><path class="cls-3" d="M34.5,54.12c.06-.79.36-2.88.78-3.31s.76-.3,1.33-.18L36,53.17C38.21,51.81,40,49,40,47a7.22,7.22,0,0,0-7.29-6.9,6.94,6.94,0,0,0-6.94,6.94c0,2.86,2.41,5.33,5.08,6.45a.58.58,0,0,1,.34.73l-.07.22a.58.58,0,0,1-.77.36c-3.22-1.33-6-4.3-6-7.76a8.35,8.35,0,0,1,8.34-8.35A8.56,8.56,0,0,1,41.3,47c0,1.55-.73,4.79-4.75,7.49l2.55.5c-.24.43-.41.81-.8.86A5.78,5.78,0,0,1,34.9,55c-.44-.32-.46-.4-.46-.4Z"/></g></g></svg>